<?xml version="1.0" ?><svg height="24" id="svg8" version="1.1" viewBox="0 0 24 24" width="24" xmlns="http://www.w3.org/2000/svg" xmlns:cc="http://creativecommons.org/ns#" xmlns:dc="http://purl.org/dc/elements/1.1/" xmlns:rdf="http://www.w3.org/1999/02/22-rdf-syntax-ns#" xmlns:svg="http://www.w3.org/2000/svg"><defs id="defs2"/><g id="g1538" style="display:inline" transform="translate(0,-290.65)"><path d="m 7,292.65 a 1,1 0 0 0 -1,1 v 2 H 5 c -1.6447,0 -3,1.3553 -3,3 v 11 c 0,1.6447 1.3553,3 3,3 h 14 c 1.6447,0 3,-1.3553 3,-3 v -11 c 0,-1.6447 -1.3553,-3 -3,-3 h -1 v -2 a 1,1 0 0 0 -1,-1 1,1 0 0 0 -1,1 v 2 H 8 v -2 a 1,1 0 0 0 -1,-1 z m -2,5 h 14 c 0.5713,0 1,0.4287 1,1 v 2 H 4 v -2 c 0,-0.5713 0.4287,-1 1,-1 z m -1,5 h 16 v 7 c 0,0.5713 -0.4287,1 -1,1 H 5 c -0.5713,0 -1,-0.4287 -1,-1 z" id="rect1516" style="color:#000000;font-style:normal;font-variant:normal;font-weight:normal;font-stretch:normal;font-size:medium;line-height:normal;font-family:sans-serif;font-variant-ligatures:normal;font-variant-position:normal;font-variant-caps:normal;font-variant-numeric:normal;font-variant-alternates:normal;font-variant-east-asian:normal;font-feature-settings:normal;font-variation-settings:normal;text-indent:0;text-align:start;text-decoration:none;text-decoration-line:none;text-decoration-style:solid;text-decoration-color:#000000;letter-spacing:normal;word-spacing:normal;text-transform:none;writing-mode:lr-tb;direction:ltr;text-orientation:mixed;dominant-baseline:auto;baseline-shift:baseline;text-anchor:start;white-space:normal;shape-padding:0;shape-margin:0;inline-size:0;clip-rule:nonzero;display:inline;overflow:visible;visibility:visible;opacity:1;isolation:auto;mix-blend-mode:normal;color-interpolation:sRGB;color-interpolation-filters:linearRGB;solid-color:#000000;solid-opacity:1;vector-effect:none;fill:#000000;fill-opacity:1;fill-rule:nonzero;stroke:none;stroke-linecap:round;stroke-linejoin:round;stroke-miterlimit:4;stroke-dasharray:none;stroke-dashoffset:0;stroke-opacity:1;color-rendering:auto;image-rendering:auto;shape-rendering:auto;text-rendering:auto;enable-background:accumulate;stop-color:#000000;stop-opacity:1"/></g></svg>